<?xml version="1.0" encoding="UTF-8"?>
<svg width="398px" height="138px" viewBox="0 0 398 138" version="1.1" xmlns="http://www.w3.org/2000/svg" xmlns:xlink="http://www.w3.org/1999/xlink">
    <!-- Generator: Sketch 60.1 (88133) - https://sketch.com -->
    <title>Group</title>
    <desc>Created with Sketch.</desc>
    <g id="Page-1" stroke="none" stroke-width="1" fill="none" fill-rule="evenodd">
        <g id="Group" fill-rule="nonzero">
            <path d="M91.062318,36.8107164 C94.3308096,36.8107164 97.0902737,35.658707 99.3407105,33.3546884 C101.644729,31.0506698 102.796738,28.2644147 102.796738,24.9959231 C102.796738,21.7274316 101.644729,18.9679674 99.3407105,16.7175306 C97.0366919,14.4135119 94.2504368,13.2615026 90.9819453,13.2615026 C87.7670355,13.2615026 85.0075713,14.4135119 82.7035527,16.7175306 C80.3995341,19.0215492 79.2475248,21.7542225 79.2475248,24.9155504 C79.2475248,28.2376238 80.3995341,31.0506698 82.7035527,33.3546884 C85.0075713,35.658707 87.7938264,36.8107164 91.062318,36.8107164 Z" id="Path" fill="#CF1767"></path>
            <path d="M386.351776,138 C389.459522,138 392.085032,136.928363 394.228305,134.78509 C396.42516,132.588235 397.523588,129.935935 397.523588,126.828189 C397.523588,123.774024 396.42516,121.148515 394.228305,118.95166 C392.03145,116.754805 389.405941,115.656377 386.351776,115.656377 C383.297612,115.656377 380.672103,116.754805 378.475248,118.95166 C376.278393,121.148515 375.179965,123.747234 375.179965,126.747816 C375.179965,129.962726 376.251602,132.641817 378.394875,134.78509 C380.538148,136.928363 383.190448,138 386.351776,138 Z" id="Path" fill="#CF1767"></path>
            <path d="M18.0838672,135.749563 L18.0838672,105.609785 L20.977286,102.716366 L46.8573093,135.749563 L70.3261503,135.749563 L33.8369249,90.3389633 L67.8345952,57.4665114 L43.5620268,57.4665114 L18.0838672,82.7839255 L18.0838672,0 L0,0 L0,135.749563 L18.0838672,135.749563 Z M100.064065,135.749563 L100.064065,57.4665114 L81.980198,57.4665114 L81.980198,135.749563 L100.064065,135.749563 Z M141.054164,135.749563 L141.054164,95.1613279 C141.054164,80.2655795 145.983692,72.8177053 155.842749,72.8177053 C159.111241,72.8177053 162.460105,74.0500874 165.889342,76.5148515 L165.889342,76.5148515 L174.167734,59.9580664 C168.970297,56.8503203 163.987187,55.2964473 159.218404,55.2964473 C155.628422,55.2964473 152.520676,55.9662202 149.895166,57.3057659 C147.323238,58.5917298 144.376238,60.9761211 141.054164,64.45894 L141.054164,64.45894 L141.054164,57.4665114 L122.970297,57.4665114 L122.970297,135.749563 L141.054164,135.749563 Z M217.086779,138 C225.659872,138 233.670355,134.517181 241.118229,127.551543 L241.118229,127.551543 L241.118229,135.749563 L259.282469,135.749563 L259.282469,57.4665114 L241.118229,57.4665114 L241.118229,66.5486313 C233.884683,59.0471753 225.713454,55.2964473 216.604543,55.2964473 C206.048923,55.2964473 197.261503,59.2079208 190.242283,67.0308678 C183.223063,74.8538148 179.713454,84.6324985 179.713454,96.366919 C179.713454,108.315667 183.223063,118.281887 190.242283,126.265579 C197.315084,134.088526 206.26325,138 217.086779,138 Z M219.819453,121.845079 C213.550379,121.845079 208.352941,119.460687 204.22714,114.691904 C200.208503,109.976704 198.199185,103.868375 198.199185,96.366919 C198.199185,89.3476995 200.262085,83.4536983 204.387886,78.6849156 C208.567268,73.9697146 213.764706,71.6121142 219.980198,71.6121142 C226.570763,71.6121142 231.928946,73.9429237 236.054747,78.6045428 C240.180547,83.3733256 242.243448,89.4280722 242.243448,96.7687828 C242.243448,104.109493 240.180547,110.16424 236.054747,114.933023 C231.928946,119.54106 226.517181,121.845079 219.819453,121.845079 Z M300.272568,135.749563 L300.272568,97.9743739 C300.272568,88.2224811 301.50495,81.3907979 303.969715,77.4793244 C306.488061,73.5142691 310.747816,71.5317414 316.748981,71.5317414 C322.267909,71.5317414 326.072219,73.0320326 328.16191,76.032615 C330.305183,78.9796156 331.37682,84.3110076 331.37682,92.0267909 L331.37682,92.0267909 L331.37682,135.749563 L349.54106,135.749563 L349.54106,87.7670355 C349.54106,76.7291788 347.344205,68.7722772 342.950495,63.8963308 C337.860221,58.1630751 330.760629,55.2964473 321.651718,55.2964473 C313.721607,55.2964473 306.595224,58.4309843 300.272568,64.7000582 L300.272568,64.7000582 L300.272568,57.4665114 L282.108328,57.4665114 L282.108328,135.749563 L300.272568,135.749563 Z" id="kiran." fill="#FFFFFF"></path>
        </g>
    </g>
</svg>